<?xml version="1.0" encoding="UTF-8" standalone="no"?>
<svg
   xmlns:dc="http://purl.org/dc/elements/1.1/"
   xmlns:cc="http://creativecommons.org/ns#"
   xmlns:rdf="http://www.w3.org/1999/02/22-rdf-syntax-ns#"
   xmlns:svg="http://www.w3.org/2000/svg"
   xmlns="http://www.w3.org/2000/svg"
   xmlns:sodipodi="http://sodipodi.sourceforge.net/DTD/sodipodi-0.dtd"
   xmlns:inkscape="http://www.inkscape.org/namespaces/inkscape"
   version="1.0"
   viewBox="0 0 182 125"
   color-interpolation-filters="sRGB"
   class="el-tooltip"
   id="svg62"
   sodipodi:docname="logoWithText.svg"
   width="182"
   height="125"
   inkscape:version="1.0.2-2 (e86c870879, 2021-01-15)">
  <metadata
     id="metadata68">
    <rdf:RDF>
      <cc:Work
         rdf:about="">
        <dc:format>image/svg+xml</dc:format>
        <dc:type
           rdf:resource="http://purl.org/dc/dcmitype/StillImage" />
        <dc:title></dc:title>
      </cc:Work>
    </rdf:RDF>
  </metadata>
  <defs
     id="defs66" />
  <sodipodi:namedview
     pagecolor="#ffffff"
     bordercolor="#666666"
     borderopacity="1"
     objecttolerance="10"
     gridtolerance="10"
     guidetolerance="10"
     inkscape:pageopacity="0"
     inkscape:pageshadow="2"
     inkscape:window-width="1920"
     inkscape:window-height="1001"
     id="namedview64"
     showgrid="false"
     inkscape:zoom="4.695189"
     inkscape:cx="160.98258"
     inkscape:cy="75.753763"
     inkscape:window-x="-9"
     inkscape:window-y="-9"
     inkscape:window-maximized="1"
     inkscape:current-layer="svg62" />
  <rect
     width="100%"
     height="100%"
     fill="none"
     class="background"
     id="rect2"
     x="0"
     y="0" />
  <rect
     width="100%"
     height="100%"
     fill="url(#watermark)"
     class="watermarklayer"
     id="rect4"
     x="0"
     y="0" />
  <g
     fill="#e93e3a"
     class="icon-text-wrapper icon-svg-group iconsvg"
     id="g60"
     transform="translate(-78.76506,-65.06024)">
    <g
       class="iconsvg-imagesvg"
       transform="translate(140,71.693722)"
       id="g56">
      <path
         class="image-rect"
         fill="none"
         d="M 0,0 H 60 V 61.1625 H 0 Z"
         id="path6" />
      <svg
         width="60"
         height="61.162498"
         class="image-svg-svg primary"
         version="1.1"
         id="svg54">
        <svg
           viewBox="0 0 485.991 495.465"
           version="1.1"
           id="svg52"
           width="100%"
           height="100%">
          <path
             fill="none"
             pointer-events="none"
             d="M 0,0 H 485.991 V 495.465 H 0 Z"
             id="path8" />
          <linearGradient
             id="a"
             gradientUnits="userSpaceOnUse"
             x1="858.73901"
             y1="153.92999"
             x2="876.05902"
             y2="153.92999">
            <stop
               offset="0"
               stop-color="#0ff"
               id="stop10" />
            <stop
               offset=".219"
               stop-color="#0cf"
               id="stop12" />
            <stop
               offset=".717"
               stop-color="#004bff"
               id="stop14" />
            <stop
               offset="1"
               stop-color="#00f"
               id="stop16" />
          </linearGradient>
          <linearGradient
             id="b"
             gradientUnits="userSpaceOnUse"
             x1="858.73901"
             y1="136.77699"
             x2="936.77002"
             y2="136.77699">
            <stop
               offset="0"
               stop-color="#fff33b"
               id="stop19" />
            <stop
               offset=".396"
               stop-color="#f7ae3b"
               id="stop21" />
            <stop
               offset="1"
               stop-color="#e93e3a"
               id="stop23" />
          </linearGradient>
          <linearGradient
             id="c"
             gradientUnits="userSpaceOnUse"
             x1="858.73901"
             y1="171.08299"
             x2="936.77002"
             y2="171.08299">
            <stop
               offset="0"
               stop-color="#ee2a7b"
               id="stop26" />
            <stop
               offset=".234"
               stop-color="#bb2198"
               id="stop28" />
            <stop
               offset=".766"
               stop-color="#3a0adf"
               id="stop30" />
            <stop
               offset="1"
               stop-color="#00f"
               id="stop32" />
          </linearGradient>
          <linearGradient
             id="d"
             gradientUnits="userSpaceOnUse"
             x1="858.73901"
             y1="205.491"
             x2="936.77002"
             y2="205.491">
            <stop
               offset="0"
               stop-color="#fff33b"
               id="stop35" />
            <stop
               offset=".396"
               stop-color="#f7ae3b"
               id="stop37" />
            <stop
               offset="1"
               stop-color="#e93e3a"
               id="stop39" />
          </linearGradient>
          <path
             d="M 479.427,320.534 V 172.536 H 175.931 v -23.5 H 479.427 V 1.04 H 175.931 v -41 l -130.498,147.497 -6.5,7.5 v 91.999 l 100.499,113.498 z m 0,171.998 V 344.534 H 8.934 l 130.498,147.998 z"
             fill="#ffffff"
             id="path42" />
          <path
             d="m 876.1,180.9 -10.9,-12.3 -6.5,-7.3 v -14.7 l 7.9,-8.9 9.5,-10.7 z"
             fill="url(#a)"
             transform="matrix(4.99993,0,0,4.99993,-4229.507,-608.953)"
             id="path44"
             style="fill:url(#a)" />
          <path
             d="m 858.7,146.6 h 78.1 V 127 h -60.4 z"
             fill="url(#b)"
             transform="matrix(4.99993,0,0,4.99993,-4233.637,-608.953)"
             id="path46"
             style="fill:url(#b)" />
          <path
             d="m 936.8,161.3 h -78.1 l 17.4,19.6 h 60.7 z"
             fill="url(#c)"
             transform="matrix(4.99993,0,0,4.99993,-4229.507,-608.953)"
             id="path48"
             style="fill:url(#c)" />
          <path
             d="m 936.8,195.7 h -78.1 l 17.4,19.6 h 60.7 z"
             fill="url(#d)"
             transform="matrix(4.99993,0,0,4.99993,-4229.507,-608.953)"
             id="path50"
             style="fill:url(#d)" />
        </svg>
      </svg>
    </g>
    <path
       d="m 87.445215,149.22343 v -3.37 h 12.32 v -1.06 h -18.16 v 27.86 h 18.16 v -1.06 h -12.32 v -21.31 h 15.770005 v -1.06 z m 33.550005,-3.37 c 2.33,0 4.55,0.52 6.68,1.55 l 0.45,-0.95 c -2.22,-1.11 -4.6,-1.66 -7.13,-1.66 -4.52,0 -8.18,1.81 -10.65,4.09 -2.39,2.21 -4.4,5.51 -4.4,9.82 0,4.45 2.11,7.8 4.61,10.01 2.47,2.18 6.09,3.94 10.44,3.94 2.53,0 4.91,-0.56 7.13,-1.67 l -0.45,-0.95 c -2.13,1.04 -4.35,1.56 -6.68,1.56 -3.55,0 -6.36,-1.13 -8.56,-2.69 v -20.36 c 2.19,-1.56 5.01,-2.69 8.56,-2.69 z m 15.7,3.37 v -4.43 h -5.84 v 27.86 h 5.84 v -22.37 h 15.24 v 22.37 h 1.02 v -27.86 h -1.02 v 4.43 z m 25.48,19.68 v -20.36 c 2.19,-1.56 5.01,-2.69 8.56,-2.69 4.19,0 7.57,1.65 9.86,3.75 2.21,2.03 4.13,5.13 4.13,9.1 0,1.79 -0.37,3.47 -1.12,5.04 -2.08,4.37 -6.53,7.85 -12.87,7.85 -3.55,0 -6.36,-1.13 -8.56,-2.69 z m 8.56,-24.11 c -4.52,0 -8.18,1.81 -10.65,4.09 -2.39,2.21 -4.4,5.51 -4.4,9.82 0,4.34 1.99,7.66 4.4,9.87 2.47,2.27 6.15,4.08 10.65,4.08 4.51,0 8.19,-1.81 10.66,-4.08 2.4,-2.2 4.39,-5.54 4.39,-9.87 0,-4.31 -2,-7.6 -4.39,-9.82 -2.47,-2.28 -6.14,-4.09 -10.66,-4.09 z m 23.62,4.43 v -3.37 h 12.32 v -1.06 h -18.16 v 27.86 h 18.16 v -1.06 h -12.32 v -21.31 h 15.77 v -1.06 z m 24.98,21.27 v -25.7 h -6.48 v 16.52 c 0,1.82 0.37,3.48 1.12,4.97 2.02,4.03 6.36,7.09 12.26,7.09 5.1,0 8.86,-2.18 11.6,-4.93 l 1.22,3.83 h 1.02 v -27.48 h -5.84 v 25.21 c -2.42,1.54 -5.09,2.31 -8,2.31 -2.77,0 -5.07,-0.75 -6.9,-1.82 z m 34.65,-23.66 0.61,-0.87 c -1,-0.69 -2.32,-1.17 -3.87,-1.17 -0.85,0 -1.7,0.17 -2.54,0.51 -2.34,0.95 -4.36,3.1 -4.36,6.35 0,2.6 1.34,4.62 3,5.76 l 10.35,6.98 c -0.62,3.54 -2.97,6 -6.03,7.1 -2.96,1.08 -6.13,0.4 -8.23,-1.04 l -0.6,0.87 c 1.54,1.01 3.42,1.75 5.76,1.75 1.29,0 2.55,-0.26 3.79,-0.76 3.52,-1.44 6.52,-4.59 6.52,-9.48 0,-3.88 -2.01,-6.8 -4.51,-8.53 l -8.23,-5.57 c 0.95,-1.6 2.74,-2.88 5.08,-2.88 1.37,0 2.38,0.37 3.26,0.98 z"
       data-gra="path-name"
       class="tp-name iconsvg-namesvg"
       id="path58" />
  </g>
</svg>
